<?xml version="1.0" standalone="no"?>
<!DOCTYPE svg PUBLIC "-//W3C//DTD SVG 20010904//EN"
 "http://www.w3.org/TR/2001/REC-SVG-20010904/DTD/svg10.dtd">
<svg version="1.0" xmlns="http://www.w3.org/2000/svg"
 width="260.000000pt" height="260.000000pt" viewBox="0 0 260.000000 260.000000"
 preserveAspectRatio="xMidYMid meet">
<metadata>
Created by potrace 1.11, written by Peter Selinger 2001-2013
</metadata>
<g transform="translate(0.000000,260.000000) scale(0.100000,-0.100000)"
fill="#000000" stroke="none">
<path d="M0 1300 l0 -1300 1300 0 1300 0 0 1300 0 1300 -1300 0 -1300 0 0
-1300z m1674 880 c78 -13 146 -47 173 -88 12 -18 29 -66 39 -107 l18 -75 42 0
c60 0 74 -23 118 -196 37 -141 37 -149 22 -181 -9 -18 -21 -33 -28 -33 -46 -1
-45 -11 62 -405 22 -82 40 -162 40 -178 0 -27 -25 -59 -63 -82 -16 -9 -16 -14
-1 -69 28 -106 -4 -154 -126 -185 -114 -29 -154 -5 -186 109 l-16 58 -47 -13
c-25 -8 -131 -37 -236 -65 -104 -28 -220 -60 -257 -71 l-67 -20 14 -47 c19
-60 19 -96 0 -132 -19 -36 -50 -53 -137 -73 -61 -14 -70 -13 -100 2 -36 17
-62 61 -78 129 -6 23 -15 40 -21 37 -14 -9 -74 13 -94 34 -14 17 -84 261 -140
489 l-17 72 -43 0 c-29 0 -47 6 -60 20 -17 19 -95 284 -95 323 0 19 45 70 69
78 12 4 10 21 -9 98 -29 118 -21 151 54 227 138 137 416 262 711 319 72 13
144 26 160 28 64 8 243 6 299 -3z"/>
<path d="M1150 1805 c-383 -105 -417 -116 -442 -145 -16 -17 -28 -40 -28 -53
0 -35 119 -478 132 -495 20 -24 70 -41 103 -35 17 3 136 35 265 70 129 35 303
82 385 104 204 55 245 81 245 155 0 32 -96 398 -117 447 -21 48 -48 67 -93 66
-19 0 -222 -52 -450 -114z"/>
<path d="M1822 1149 c-36 -11 -72 -59 -72 -97 0 -31 26 -79 49 -92 39 -20 91
-12 122 19 29 29 33 43 29 91 -3 39 -19 61 -55 76 -19 8 -36 14 -37 13 -2 0
-18 -5 -36 -10z"/>
<path d="M865 874 c-35 -38 -34 -101 1 -143 65 -77 195 -5 170 95 -19 74 -121
102 -171 48z"/>
</g>
</svg>
